<svg width="164" height="48" viewBox="0 0 164 48" fill="none" xmlns="http://www.w3.org/2000/svg">
<g clip-path="url(#clip0)">
<path d="M157.533 48H5.96715C2.68522 48 0 45.3 0 42V6C0 2.7 2.68522 0 5.96715 0H157.533C160.815 0 163.5 2.7 163.5 6V42C163.5 45.3 160.815 48 157.533 48Z" fill="black"/>
<path d="M157.533 0.96C160.302 0.96 162.545 3.216 162.545 6V42C162.545 44.784 160.302 47.04 157.533 47.04H5.96715C3.19839 47.04 0.954745 44.784 0.954745 42V6C0.954745 3.216 3.19839 0.96 5.96715 0.96H157.533ZM157.533 0H5.96715C2.68522 0 0 2.7 0 6V42C0 45.3 2.68522 48 5.96715 48H157.533C160.815 48 163.5 45.3 163.5 42V6C163.5 2.7 160.815 0 157.533 0Z" fill="#A6A6A6"/>
<path fill-rule="evenodd" clip-rule="evenodd" d="M48.4175 36.3C44.7179 39.048 39.3594 40.5 34.7527 40.5C28.2843 40.5 22.4604 38.1 18.0566 34.092C17.7105 33.78 18.0208 33.348 18.4385 33.588C23.1884 36.372 29.072 38.04 35.1465 38.04C39.24 38.04 43.7512 37.188 47.8924 35.424C48.501 35.16 49.0261 35.844 48.4175 36.3Z" fill="white"/>
<path fill-rule="evenodd" clip-rule="evenodd" d="M49.9451 34.536C49.4677 33.924 46.8183 34.248 45.6249 34.392C45.2668 34.44 45.2072 34.116 45.5294 33.888C47.6418 32.388 51.1147 32.82 51.5085 33.324C51.9143 33.828 51.4011 37.32 49.42 38.988C49.1097 39.24 48.8233 39.108 48.9545 38.772C49.42 37.644 50.4225 35.136 49.9451 34.536Z" fill="white"/>
<path fill-rule="evenodd" clip-rule="evenodd" d="M45.7203 23.328V21.876C45.7203 21.66 45.8874 21.504 46.0903 21.504H52.5587C52.7616 21.504 52.9287 21.66 52.9287 21.876V23.124C52.9287 23.328 52.7496 23.604 52.4393 24.036L49.0858 28.848C50.327 28.824 51.6517 29.004 52.7735 29.64C53.0241 29.784 53.0957 30 53.1196 30.204V31.752C53.1196 31.968 52.8929 32.208 52.6422 32.088C50.6492 31.044 48.0117 30.924 45.8039 32.1C45.5771 32.22 45.3384 31.98 45.3384 31.764V30.288C45.3384 30.048 45.3384 29.652 45.5771 29.292L49.4558 23.688H46.0784C45.8874 23.688 45.7203 23.544 45.7203 23.328Z" fill="white"/>
<path fill-rule="evenodd" clip-rule="evenodd" d="M22.1143 32.4H20.1451C19.9542 32.388 19.811 32.244 19.7871 32.064V21.9C19.7871 21.696 19.9542 21.54 20.169 21.54H22.0069C22.1978 21.552 22.353 21.696 22.3649 21.876V23.208H22.4007C22.8781 21.924 23.7732 21.324 24.9905 21.324C26.2197 21.324 26.9954 21.924 27.5444 23.208C28.0218 21.924 29.1078 21.324 30.2654 21.324C31.0889 21.324 31.9959 21.672 32.5449 22.44C33.1655 23.292 33.0461 24.54 33.0461 25.62V32.028C33.0461 32.232 32.879 32.388 32.6642 32.388H30.6951C30.4922 32.376 30.337 32.22 30.337 32.028V26.64C30.337 26.208 30.3728 25.14 30.2774 24.732C30.1341 24.048 29.6926 23.856 29.1197 23.856C28.6424 23.856 28.1411 24.18 27.9382 24.684C27.7354 25.2 27.7592 26.052 27.7592 26.628V32.016C27.7592 32.22 27.5921 32.376 27.3773 32.376H25.4201C25.2172 32.364 25.0621 32.208 25.0621 32.016V26.628C25.0621 25.5 25.2411 23.832 23.8448 23.832C22.4246 23.832 22.4843 25.452 22.4843 26.628V32.016C22.4962 32.232 22.3291 32.4 22.1143 32.4Z" fill="white"/>
<path fill-rule="evenodd" clip-rule="evenodd" d="M58.5019 21.324C61.4258 21.324 63.0011 23.844 63.0011 27.048C63.0011 30.144 61.2587 32.604 58.5019 32.604C55.6377 32.604 54.0743 30.084 54.0743 26.94C54.0743 23.784 55.6496 21.324 58.5019 21.324ZM58.5138 23.4C57.0579 23.4 56.9743 25.392 56.9743 26.628C56.9743 27.864 56.9504 30.516 58.5019 30.516C60.0295 30.516 60.1011 28.38 60.1011 27.072C60.1011 26.22 60.0653 25.188 59.8027 24.372C59.5879 23.676 59.1464 23.4 58.5138 23.4Z" fill="white"/>
<path fill-rule="evenodd" clip-rule="evenodd" d="M66.7963 32.4001H64.8391C64.6362 32.3881 64.481 32.2321 64.481 32.0401V21.8761C64.493 21.6841 64.6601 21.5401 64.8629 21.5401H66.6889C66.856 21.5521 66.9992 21.6721 67.035 21.8281V23.3881H67.0708C67.6198 21.9961 68.3955 21.3361 69.756 21.3361C70.6392 21.3361 71.4984 21.6601 72.0474 22.5361C72.5606 23.3521 72.5606 24.7201 72.5606 25.7041V32.1001C72.5367 32.2561 72.3816 32.4001 72.1787 32.4001H70.2095C70.0305 32.3881 69.8754 32.2561 69.8634 32.0761V26.5561C69.8634 25.4401 69.9947 23.8201 68.6342 23.8201C68.1568 23.8201 67.7152 24.1441 67.5004 24.6361C67.2259 25.2601 67.1901 25.8721 67.1901 26.5561V32.0281C67.1663 32.2321 66.9992 32.4001 66.7963 32.4001Z" fill="white"/>
<path fill-rule="evenodd" clip-rule="evenodd" d="M40.5647 27.54C40.5647 28.308 40.5885 28.956 40.1947 29.64C39.8844 30.192 39.3832 30.54 38.8342 30.54C38.0823 30.54 37.6408 29.964 37.6408 29.1C37.6408 27.42 39.1445 27.108 40.5647 27.108V27.54ZM42.5458 32.364C42.4145 32.484 42.2235 32.484 42.0803 32.412C41.4239 31.86 41.3046 31.608 40.9466 31.092C39.8605 32.196 39.0967 32.532 37.7004 32.532C36.0416 32.532 34.7527 31.5 34.7527 29.448C34.7527 27.84 35.6239 26.748 36.8531 26.208C37.9152 25.74 39.419 25.656 40.5527 25.524V25.272C40.5527 24.804 40.5885 24.24 40.314 23.832C40.0754 23.472 39.6099 23.316 39.2041 23.316C38.4523 23.316 37.784 23.7 37.6169 24.504C37.5811 24.684 37.4498 24.864 37.2708 24.864L35.3613 24.66C35.1942 24.624 35.0271 24.492 35.0629 24.24C35.5045 21.912 37.593 21.204 39.4667 21.204C40.4215 21.204 41.6746 21.456 42.4264 22.188C43.3812 23.088 43.2976 24.288 43.2976 25.596V28.68C43.2976 29.604 43.6795 30.012 44.0375 30.516C44.1688 30.696 44.1927 30.912 44.0256 31.044C43.6556 31.404 42.9396 32.028 42.5458 32.364Z" fill="white"/>
<path fill-rule="evenodd" clip-rule="evenodd" d="M14.7508 27.54C14.7508 28.308 14.7747 28.956 14.3808 29.64C14.0705 30.192 13.5693 30.54 13.0203 30.54C12.2685 30.54 11.8269 29.964 11.8269 29.1C11.8269 27.42 13.3306 27.108 14.7508 27.108V27.54ZM16.7319 32.364C16.6006 32.484 16.4097 32.484 16.2664 32.412C15.6101 31.86 15.4907 31.608 15.1327 31.092C14.0467 32.196 13.2829 32.532 11.8866 32.532C10.2277 32.532 8.93878 31.5 8.93878 29.448C8.93878 27.84 9.80999 26.748 11.0392 26.208C12.1014 25.74 13.6051 25.656 14.7389 25.524V25.272C14.7389 24.804 14.7747 24.24 14.5002 23.832C14.2615 23.472 13.796 23.316 13.3903 23.316C12.6384 23.316 11.9701 23.7 11.803 24.504C11.7672 24.684 11.6359 24.864 11.4569 24.864L9.54743 24.66C9.38035 24.624 9.20134 24.492 9.24907 24.24C9.69064 21.912 11.7791 21.204 13.6528 21.204C14.6076 21.204 15.8607 21.456 16.6125 22.188C17.5673 23.088 17.4837 24.288 17.4837 25.596V28.68C17.4837 29.604 17.8656 30.012 18.2237 30.516C18.3549 30.696 18.3788 30.912 18.2117 31.044C17.8537 31.404 17.1376 32.028 16.7319 32.364Z" fill="white"/>
<path d="M80.5446 32.508C79.5898 32.508 78.8022 32.22 78.2055 31.644C77.6088 31.068 77.3104 30.312 77.3104 29.388C77.3104 28.368 77.6804 27.552 78.4083 26.952C79.1363 26.34 80.1269 26.04 81.3561 26.04C82.0841 26.04 82.8718 26.148 83.743 26.352V25.128C83.743 24.432 83.5879 23.94 83.2895 23.664C82.9911 23.388 82.466 23.256 81.7022 23.256C81.2487 23.256 80.7475 23.304 80.1985 23.388C79.6495 23.484 79.1244 23.604 78.6351 23.772C78.5038 23.808 78.3845 23.832 78.289 23.832C78.11 23.832 78.0265 23.7 78.0265 23.436V22.668C78.0265 22.476 78.0503 22.332 78.11 22.26C78.1697 22.176 78.3129 22.092 78.5396 21.996C79.6137 21.588 80.7952 21.372 82.0961 21.372C83.4446 21.372 84.4233 21.648 85.0677 22.2C85.7122 22.752 86.0225 23.616 86.0225 24.78V31.74C86.0225 32.04 85.8673 32.196 85.5689 32.196H84.4949C84.1965 32.196 84.0175 32.064 83.9817 31.788L83.8743 31.188C83.3969 31.596 82.8599 31.92 82.287 32.16C81.7022 32.4 81.1174 32.508 80.5446 32.508ZM81.2249 30.78C81.6187 30.78 82.0364 30.696 82.478 30.516C82.9195 30.348 83.3372 30.096 83.7549 29.784V27.804C83.0269 27.648 82.3825 27.576 81.8216 27.576C80.4014 27.576 79.6853 28.128 79.6853 29.256C79.6853 29.736 79.8166 30.108 80.0911 30.384C80.3656 30.636 80.7475 30.78 81.2249 30.78Z" fill="white"/>
<path d="M88.6719 36.456C88.3735 36.456 88.2184 36.3 88.2184 36V22.14C88.2184 21.84 88.3735 21.684 88.6719 21.684H89.8056C90.104 21.684 90.283 21.816 90.3427 22.092L90.462 22.728C90.9394 22.284 91.4764 21.948 92.0493 21.72C92.634 21.48 93.2427 21.372 93.8633 21.372C95.1641 21.372 96.2024 21.864 96.9781 22.836C97.7539 23.82 98.1358 25.128 98.1358 26.784C98.1358 27.924 97.9448 28.932 97.5748 29.784C97.1929 30.636 96.6678 31.296 95.9995 31.752C95.3312 32.208 94.5555 32.436 93.6962 32.436C93.1234 32.436 92.5624 32.34 92.0254 32.136C91.4884 31.932 91.0229 31.656 90.6291 31.296V36C90.6291 36.3 90.4739 36.456 90.1756 36.456H88.6719ZM93.0875 30.504C93.9588 30.504 94.6151 30.204 95.0448 29.604C95.4744 29.004 95.6773 28.092 95.6773 26.868C95.6773 25.656 95.4744 24.756 95.0448 24.168C94.6151 23.58 93.9826 23.292 93.0995 23.292C92.2044 23.292 91.3809 23.556 90.6291 24.072V29.7C91.4167 30.24 92.2283 30.504 93.0875 30.504Z" fill="white"/>
<path d="M100.344 36.456C100.045 36.456 99.8901 36.3 99.8901 36V22.14C99.8901 21.84 100.045 21.684 100.344 21.684H101.477C101.776 21.684 101.955 21.816 102.014 22.092L102.134 22.728C102.611 22.284 103.148 21.948 103.721 21.72C104.306 21.48 104.914 21.372 105.535 21.372C106.836 21.372 107.874 21.864 108.65 22.836C109.426 23.82 109.808 25.128 109.808 26.784C109.808 27.924 109.617 28.932 109.247 29.784C108.865 30.636 108.34 31.296 107.671 31.752C107.003 32.208 106.227 32.436 105.368 32.436C104.795 32.436 104.234 32.34 103.697 32.136C103.16 31.932 102.695 31.656 102.301 31.296V36C102.301 36.3 102.146 36.456 101.847 36.456H100.344ZM104.771 30.504C105.642 30.504 106.299 30.204 106.728 29.604C107.158 29.004 107.361 28.092 107.361 26.868C107.361 25.656 107.158 24.756 106.728 24.168C106.299 23.58 105.666 23.292 104.783 23.292C103.888 23.292 103.065 23.556 102.313 24.072V29.7C103.089 30.24 103.9 30.504 104.771 30.504Z" fill="white"/>
<path d="M114.378 32.508C113.292 32.508 112.29 32.328 111.383 31.968C111.168 31.884 111.025 31.8 110.965 31.704C110.905 31.62 110.87 31.464 110.87 31.26V30.516C110.87 30.24 110.965 30.108 111.156 30.108C111.252 30.108 111.443 30.156 111.729 30.228C112.708 30.504 113.579 30.636 114.366 30.636C115.047 30.636 115.548 30.528 115.87 30.312C116.18 30.096 116.348 29.772 116.348 29.328C116.348 29.028 116.252 28.776 116.061 28.596C115.87 28.404 115.512 28.224 114.987 28.032L113.28 27.372C111.741 26.784 110.977 25.812 110.977 24.48C110.977 23.52 111.335 22.752 112.051 22.2C112.767 21.648 113.722 21.36 114.903 21.36C115.751 21.36 116.61 21.504 117.469 21.792C117.672 21.864 117.815 21.936 117.875 22.032C117.947 22.128 117.983 22.272 117.983 22.5V23.22C117.983 23.376 117.959 23.472 117.911 23.544C117.863 23.616 117.78 23.64 117.66 23.64C117.589 23.64 117.422 23.604 117.147 23.532C116.288 23.328 115.584 23.22 115.047 23.22C114.414 23.22 113.949 23.316 113.662 23.496C113.364 23.676 113.221 23.976 113.221 24.372C113.221 24.672 113.328 24.924 113.543 25.104C113.758 25.284 114.14 25.488 114.689 25.716L116.276 26.34C117.099 26.652 117.696 27.036 118.054 27.48C118.412 27.924 118.603 28.476 118.603 29.16C118.603 30.192 118.233 31.008 117.493 31.608C116.717 32.208 115.691 32.508 114.378 32.508Z" fill="white"/>
<path d="M124.32 32.34C123.234 32.34 122.434 32.088 121.921 31.572C121.396 31.068 121.133 30.288 121.133 29.232V23.532H119.82C119.522 23.532 119.367 23.376 119.367 23.076V22.476C119.367 22.296 119.403 22.164 119.474 22.092C119.546 22.02 119.653 21.96 119.808 21.936L121.229 21.732L121.539 19.236C121.551 19.068 121.599 18.948 121.682 18.888C121.766 18.816 121.885 18.78 122.052 18.78H123.126C123.425 18.78 123.58 18.936 123.58 19.236V21.672H126.11C126.408 21.672 126.563 21.828 126.563 22.128V23.076C126.563 23.376 126.408 23.532 126.11 23.532H123.58V29.112C123.58 29.58 123.687 29.916 123.914 30.108C124.141 30.312 124.523 30.408 125.06 30.408C125.37 30.408 125.632 30.384 125.823 30.348C126.014 30.312 126.169 30.288 126.301 30.288C126.539 30.288 126.647 30.42 126.647 30.684V31.428C126.647 31.644 126.611 31.8 126.539 31.896C126.468 31.992 126.325 32.064 126.122 32.112C125.513 32.268 124.928 32.34 124.32 32.34Z" fill="white"/>
<path d="M132.328 32.508C130.74 32.508 129.499 32.016 128.604 31.032C127.709 30.048 127.267 28.68 127.267 26.928C127.267 25.176 127.709 23.82 128.604 22.836C129.499 21.864 130.74 21.372 132.328 21.372C133.915 21.372 135.156 21.864 136.051 22.836C136.946 23.82 137.388 25.176 137.388 26.928C137.388 28.68 136.946 30.048 136.051 31.032C135.156 32.016 133.915 32.508 132.328 32.508ZM132.328 30.588C134.058 30.588 134.917 29.364 134.917 26.928C134.917 24.504 134.058 23.292 132.328 23.292C130.597 23.292 129.738 24.504 129.738 26.928C129.738 29.364 130.597 30.588 132.328 30.588Z" fill="white"/>
<path d="M139.56 32.196C139.261 32.196 139.106 32.04 139.106 31.74V22.128C139.106 21.828 139.261 21.672 139.56 21.672H140.646C140.837 21.672 140.968 21.696 141.052 21.756C141.123 21.816 141.183 21.912 141.207 22.068L141.457 23.244C142.006 22.644 142.519 22.212 142.997 21.96C143.474 21.708 143.999 21.588 144.56 21.588H144.644C144.823 21.588 144.966 21.6 145.085 21.636C145.205 21.672 145.288 21.732 145.336 21.816C145.384 21.9 145.408 22.056 145.408 22.272V23.388C145.408 23.676 145.288 23.82 145.038 23.82C144.954 23.82 144.847 23.808 144.703 23.796C144.56 23.784 144.405 23.772 144.238 23.772C143.224 23.772 142.329 24.036 141.541 24.552V31.728C141.541 32.028 141.386 32.184 141.087 32.184H139.56V32.196Z" fill="white"/>
<path d="M151.208 32.508C149.477 32.508 148.176 32.04 147.281 31.104C146.386 30.168 145.945 28.8 145.945 27.012C145.945 25.236 146.386 23.844 147.245 22.86C148.117 21.864 149.334 21.372 150.897 21.372C152.246 21.372 153.272 21.744 153.988 22.476C154.704 23.208 155.062 24.252 155.062 25.608C155.062 26.076 155.027 26.568 154.955 27.072C154.931 27.252 154.871 27.372 154.8 27.432C154.728 27.492 154.621 27.528 154.502 27.528H148.164C148.2 28.572 148.499 29.34 149.036 29.832C149.573 30.324 150.408 30.564 151.53 30.564C152.353 30.564 153.213 30.432 154.12 30.168C154.227 30.144 154.311 30.12 154.37 30.108C154.43 30.096 154.478 30.084 154.513 30.084C154.716 30.084 154.824 30.216 154.824 30.492V31.236C154.824 31.44 154.788 31.584 154.728 31.68C154.669 31.764 154.525 31.86 154.311 31.932C153.415 32.328 152.377 32.508 151.208 32.508ZM152.938 25.896V25.728C152.938 24.888 152.759 24.252 152.389 23.808C152.031 23.364 151.494 23.148 150.802 23.148C150.062 23.148 149.465 23.4 148.988 23.892C148.511 24.384 148.26 25.056 148.188 25.896H152.938Z" fill="white"/>
<path d="M56.9385 15.216C56.4254 15.216 56.0196 15.072 55.7212 14.784C55.4109 14.496 55.2677 14.1 55.2677 13.608C55.2677 13.08 55.4587 12.66 55.8286 12.348C56.1986 12.036 56.6998 11.88 57.3324 11.88C57.7381 11.88 58.1797 11.94 58.6809 12.06V11.34C58.6809 10.956 58.5974 10.68 58.4184 10.524C58.2394 10.368 57.941 10.284 57.5233 10.284C57.034 10.284 56.5447 10.356 56.0793 10.5C55.9122 10.548 55.8048 10.572 55.769 10.572C55.6854 10.572 55.6377 10.512 55.6377 10.38V10.092C55.6377 9.99601 55.6496 9.92401 55.6854 9.88801C55.7093 9.84001 55.769 9.80401 55.8525 9.76801C56.0793 9.67201 56.3538 9.58801 56.6998 9.52801C57.0459 9.46801 57.3801 9.43201 57.7143 9.43201C58.3945 9.43201 58.8958 9.57601 59.218 9.86401C59.5402 10.152 59.6954 10.584 59.6954 11.16V14.856C59.6954 15 59.6238 15.072 59.4805 15.072H59.0151C58.8838 15.072 58.8003 15 58.7764 14.868L58.7287 14.508C58.4661 14.736 58.1916 14.904 57.8694 15.024C57.5591 15.144 57.2488 15.216 56.9385 15.216ZM57.2011 14.4C57.4398 14.4 57.6785 14.352 57.941 14.256C58.2036 14.16 58.4423 14.028 58.6809 13.848V12.744C58.299 12.648 57.9172 12.6 57.5472 12.6C56.7357 12.6 56.3299 12.912 56.3299 13.536C56.3299 13.812 56.4015 14.016 56.5566 14.172C56.6998 14.328 56.9147 14.4 57.2011 14.4Z" fill="white"/>
<path d="M62.6312 15.0721C62.5357 15.0721 62.4522 15.0601 62.4164 15.0241C62.3687 15.0001 62.3209 14.9161 62.2732 14.7721L60.3756 9.97205C60.3637 9.92405 60.3398 9.88805 60.3279 9.84005C60.304 9.79205 60.304 9.75605 60.304 9.72005C60.304 9.62405 60.3518 9.57605 60.4592 9.57605H61.0917C61.1991 9.57605 61.2707 9.58805 61.3184 9.62405C61.3662 9.64805 61.402 9.73205 61.4616 9.87605L62.9296 14.0881L64.3975 9.87605C64.4452 9.74405 64.493 9.66005 64.5407 9.62405C64.5765 9.61205 64.6481 9.60005 64.7555 9.60005H65.3522C65.4596 9.60005 65.5193 9.64805 65.5193 9.74405C65.5193 9.78005 65.5074 9.81605 65.4955 9.86405C65.4835 9.91205 65.4596 9.94805 65.4477 9.99605L63.5621 14.7961C63.5144 14.9281 63.4666 15.0121 63.4189 15.0481C63.3711 15.0721 63.2995 15.0961 63.2041 15.0961H62.6312V15.0721Z" fill="white"/>
<path d="M67.6197 15.216C67.1066 15.216 66.7008 15.072 66.4024 14.784C66.0922 14.496 65.9489 14.1 65.9489 13.608C65.9489 13.08 66.1399 12.66 66.5099 12.348C66.8798 12.036 67.3811 11.88 68.0136 11.88C68.4193 11.88 68.8609 11.94 69.3621 12.06V11.34C69.3621 10.956 69.2786 10.68 69.0996 10.524C68.9206 10.368 68.6222 10.284 68.2045 10.284C67.7152 10.284 67.2259 10.356 66.7605 10.5C66.5934 10.548 66.486 10.572 66.4502 10.572C66.3666 10.572 66.3189 10.512 66.3189 10.38V10.092C66.3189 9.99601 66.3308 9.92401 66.3666 9.88801C66.3905 9.84001 66.4502 9.80401 66.5337 9.76801C66.7605 9.67201 67.035 9.58801 67.3811 9.52801C67.7272 9.46801 68.0613 9.43201 68.3955 9.43201C69.0757 9.43201 69.577 9.57601 69.8992 9.86401C70.2214 10.152 70.3766 10.584 70.3766 11.16V14.856C70.3766 15 70.305 15.072 70.1617 15.072H69.6963C69.565 15.072 69.4815 15 69.4576 14.868L69.4099 14.508C69.1473 14.736 68.8728 14.904 68.5506 15.024C68.2284 15.144 67.9181 15.216 67.6197 15.216ZM67.8704 14.4C68.109 14.4 68.3477 14.352 68.6103 14.256C68.8728 14.16 69.1115 14.028 69.3502 13.848V12.744C68.9683 12.648 68.5864 12.6 68.2165 12.6C67.4049 12.6 66.9992 12.912 66.9992 13.536C66.9992 13.812 67.0708 14.016 67.2259 14.172C67.3811 14.328 67.5959 14.4 67.8704 14.4Z" fill="white"/>
<path d="M72.3577 8.62803C72.1548 8.62803 71.9877 8.56803 71.8684 8.44803C71.749 8.32803 71.6894 8.17203 71.6894 7.98003C71.6894 7.78803 71.749 7.63203 71.8684 7.51203C71.9877 7.39203 72.1548 7.33203 72.3577 7.33203C72.5606 7.33203 72.7276 7.39203 72.847 7.51203C72.9663 7.63203 73.026 7.78803 73.026 7.98003C73.026 8.17203 72.9663 8.32803 72.847 8.44803C72.7276 8.56803 72.5725 8.62803 72.3577 8.62803ZM72.0355 15.072C71.8922 15.072 71.8206 15 71.8206 14.856V9.81603C71.8206 9.67203 71.8922 9.60003 72.0355 9.60003H72.668C72.8112 9.60003 72.8828 9.67203 72.8828 9.81603V14.856C72.8828 15 72.8112 15.072 72.668 15.072H72.0355Z" fill="white"/>
<path d="M75.5322 15.12C75.1503 15.12 74.8639 15.012 74.661 14.796C74.4581 14.58 74.3627 14.256 74.3627 13.848V7.29602C74.3627 7.15202 74.4343 7.08002 74.5775 7.08002H75.21C75.3532 7.08002 75.4248 7.15202 75.4248 7.29602V13.788C75.4248 13.956 75.4606 14.076 75.5322 14.148C75.6038 14.22 75.7112 14.256 75.8664 14.256C75.9141 14.256 75.9499 14.256 75.9977 14.244C76.0454 14.232 76.0812 14.232 76.117 14.232C76.1886 14.232 76.2364 14.256 76.2602 14.28C76.2841 14.316 76.296 14.376 76.296 14.436V14.784C76.296 14.856 76.2841 14.916 76.2483 14.952C76.2125 14.988 76.1647 15.024 76.0812 15.048C75.9141 15.108 75.7232 15.12 75.5322 15.12Z" fill="white"/>
<path d="M78.5874 15.216C78.0743 15.216 77.6685 15.072 77.3701 14.784C77.0598 14.496 76.9166 14.1 76.9166 13.608C76.9166 13.08 77.1076 12.66 77.4775 12.348C77.8475 12.036 78.3487 11.88 78.9813 11.88C79.387 11.88 79.8286 11.94 80.3298 12.06V11.34C80.3298 10.956 80.2463 10.68 80.0673 10.524C79.8883 10.368 79.5899 10.284 79.1722 10.284C78.6829 10.284 78.1936 10.356 77.7282 10.5C77.5611 10.548 77.4537 10.572 77.4179 10.572C77.3343 10.572 77.2866 10.512 77.2866 10.38V10.092C77.2866 9.99601 77.2985 9.92401 77.3343 9.88801C77.3582 9.84001 77.4179 9.80401 77.5014 9.76801C77.7282 9.67201 78.0027 9.58801 78.3487 9.52801C78.6948 9.46801 79.029 9.43201 79.3632 9.43201C80.0434 9.43201 80.5447 9.57601 80.8669 9.86401C81.1891 10.152 81.3562 10.584 81.3562 11.16V14.856C81.3562 15 81.2846 15.072 81.1414 15.072H80.6759C80.5447 15.072 80.4611 15 80.4372 14.868L80.3895 14.508C80.127 14.736 79.8525 14.904 79.5302 15.024C79.208 15.144 78.8977 15.216 78.5874 15.216ZM78.85 14.4C79.0887 14.4 79.3274 14.352 79.5899 14.256C79.8525 14.16 80.0911 14.028 80.3298 13.848V12.744C79.9479 12.648 79.566 12.6 79.1961 12.6C78.3845 12.6 77.9788 12.912 77.9788 13.536C77.9788 13.812 78.0504 14.016 78.2055 14.172C78.3607 14.328 78.5755 14.4 78.85 14.4Z" fill="white"/>
<path d="M85.4854 15.192C84.829 15.192 84.2442 14.964 83.7549 14.496L83.6833 14.856C83.6595 15 83.5759 15.072 83.4327 15.072H82.9673C82.824 15.072 82.7524 15 82.7524 14.856V7.29602C82.7524 7.15202 82.824 7.08002 82.9673 7.08002H83.5998C83.743 7.08002 83.8146 7.15202 83.8146 7.29602V10.116C84.3517 9.66002 84.9364 9.43202 85.557 9.43202C86.2492 9.43202 86.7982 9.68402 87.204 10.188C87.6097 10.692 87.8007 11.388 87.8007 12.264C87.8007 13.152 87.5859 13.86 87.1682 14.388C86.7505 14.928 86.1895 15.192 85.4854 15.192ZM85.2348 14.328C86.2253 14.328 86.7147 13.656 86.7147 12.324C86.7147 11.64 86.5953 11.136 86.3566 10.8C86.1179 10.464 85.748 10.308 85.2587 10.308C84.7455 10.308 84.2681 10.476 83.8146 10.8V13.812C84.2681 14.148 84.7455 14.328 85.2348 14.328Z" fill="white"/>
<path d="M90.1278 15.12C89.7459 15.12 89.4595 15.012 89.2566 14.796C89.0538 14.58 88.9583 14.256 88.9583 13.848V7.29602C88.9583 7.15202 89.0299 7.08002 89.1731 7.08002H89.8056C89.9488 7.08002 90.0204 7.15202 90.0204 7.29602V13.788C90.0204 13.956 90.0562 14.076 90.1278 14.148C90.1994 14.22 90.3069 14.256 90.462 14.256C90.5097 14.256 90.5455 14.256 90.5933 14.244C90.641 14.232 90.6768 14.232 90.7126 14.232C90.7842 14.232 90.832 14.256 90.8558 14.28C90.8797 14.316 90.8916 14.376 90.8916 14.436V14.784C90.8916 14.856 90.8797 14.916 90.8439 14.952C90.8081 14.988 90.7604 15.024 90.6768 15.048C90.5097 15.108 90.3188 15.12 90.1278 15.12Z" fill="white"/>
<path d="M94.2571 15.228C93.374 15.228 92.7057 14.988 92.2641 14.496C91.8106 14.004 91.5838 13.284 91.5838 12.324C91.5838 11.412 91.8106 10.704 92.2641 10.188C92.7176 9.67201 93.3501 9.43201 94.1497 9.43201C94.83 9.43201 95.3551 9.62401 95.7131 10.008C96.0831 10.392 96.2621 10.944 96.2621 11.64C96.2621 11.868 96.2382 12.108 96.2024 12.336C96.1905 12.42 96.1666 12.48 96.1308 12.504C96.095 12.528 96.0473 12.552 95.9757 12.552H92.6102C92.6221 13.176 92.7773 13.632 93.0637 13.92C93.3501 14.208 93.8036 14.364 94.4123 14.364C94.6271 14.364 94.83 14.352 95.0328 14.316C95.2357 14.28 95.4744 14.22 95.7847 14.136C95.8325 14.124 95.8802 14.112 95.916 14.1C95.9518 14.088 95.9876 14.088 96.0115 14.088C96.1069 14.088 96.1547 14.148 96.1547 14.28V14.58C96.1547 14.676 96.1427 14.736 96.1069 14.784C96.0831 14.82 96.0115 14.868 95.9279 14.904C95.7131 15 95.4625 15.072 95.1641 15.132C94.8658 15.192 94.5555 15.228 94.2571 15.228ZM95.2835 11.856C95.2954 11.796 95.2954 11.7 95.2954 11.58C95.2954 11.136 95.1999 10.812 94.9851 10.584C94.7822 10.356 94.4839 10.248 94.09 10.248C93.6365 10.248 93.2904 10.38 93.0398 10.656C92.7892 10.932 92.646 11.328 92.6102 11.856H95.2835Z" fill="white"/>
<path d="M101.358 15.216C100.845 15.216 100.439 15.072 100.141 14.784C99.8424 14.496 99.6873 14.1 99.6873 13.608C99.6873 13.08 99.8782 12.66 100.248 12.348C100.618 12.036 101.119 11.88 101.752 11.88C102.158 11.88 102.599 11.94 103.1 12.06V11.34C103.1 10.956 103.017 10.68 102.838 10.524C102.659 10.368 102.361 10.284 101.943 10.284C101.454 10.284 100.964 10.356 100.499 10.5C100.332 10.548 100.236 10.572 100.188 10.572C100.105 10.572 100.057 10.512 100.057 10.38V10.092C100.057 9.99601 100.069 9.92401 100.105 9.88801C100.129 9.84001 100.188 9.80401 100.272 9.76801C100.499 9.67201 100.773 9.58801 101.119 9.52801C101.465 9.46801 101.8 9.43201 102.134 9.43201C102.814 9.43201 103.315 9.57601 103.638 9.86401C103.96 10.152 104.127 10.584 104.127 11.16V14.856C104.127 15 104.055 15.072 103.912 15.072H103.447C103.315 15.072 103.232 15 103.208 14.868L103.16 14.508C102.898 14.736 102.611 14.904 102.301 15.024C101.991 15.144 101.668 15.216 101.358 15.216ZM101.621 14.4C101.859 14.4 102.11 14.352 102.361 14.256C102.623 14.16 102.862 14.028 103.1 13.848V12.744C102.719 12.648 102.337 12.6 101.967 12.6C101.155 12.6 100.749 12.912 100.749 13.536C100.749 13.812 100.821 14.016 100.976 14.172C101.131 14.328 101.334 14.4 101.621 14.4Z" fill="white"/>
<path d="M107.397 15.144C106.382 15.144 105.869 14.628 105.869 13.608V10.44H105.093C104.95 10.44 104.879 10.368 104.879 10.224V9.94803C104.879 9.87603 104.891 9.82803 104.926 9.79203C104.962 9.75603 105.022 9.73203 105.117 9.72003L105.905 9.62403L106.048 8.28003C106.06 8.13603 106.144 8.06403 106.275 8.06403H106.728C106.872 8.06403 106.943 8.13603 106.943 8.28003V9.60003H108.34C108.483 9.60003 108.554 9.67203 108.554 9.81603V10.224C108.554 10.368 108.483 10.44 108.34 10.44H106.931V13.56C106.931 13.824 106.991 14.016 107.11 14.124C107.23 14.232 107.433 14.28 107.719 14.28C107.85 14.28 108.017 14.268 108.22 14.232C108.328 14.208 108.399 14.196 108.435 14.196C108.495 14.196 108.531 14.208 108.554 14.244C108.578 14.28 108.59 14.328 108.59 14.4V14.688C108.59 14.784 108.578 14.856 108.542 14.904C108.519 14.952 108.459 14.988 108.375 15.012C108.101 15.108 107.767 15.144 107.397 15.144Z" fill="white"/>
</g>
<defs>
<clipPath id="clip0">
<rect width="163.5" height="48" fill="white"/>
</clipPath>
</defs>
</svg>
