<svg width="135" height="48" viewBox="0 0 135 48" fill="none" xmlns="http://www.w3.org/2000/svg">
<path d="M124.249 0.000155999H10.7566C10.3429 0.000155999 9.9342 0.000156 9.5216 0.00255599C9.17621 0.00495598 8.83358 0.011928 8.48488 0.0177959C7.72733 0.0272781 6.97157 0.0981672 6.22416 0.229847C5.4778 0.364394 4.75482 0.618053 4.07967 0.982245C3.40534 1.34952 2.7892 1.82675 2.25358 2.39663C1.71514 2.96491 1.26632 3.62176 0.924356 4.34193C0.581453 5.06067 0.343683 5.83086 0.219258 6.62591C0.0936495 7.41995 0.0260586 8.22315 0.0170916 9.0283C0.00662229 9.39622 0.00551669 9.76536 0 10.1333V37.8704C0.00551669 38.243 0.00662229 38.6039 0.0170916 38.9766C0.0260614 39.7817 0.0936522 40.5849 0.219258 41.3789C0.343339 42.1744 0.581124 42.945 0.924356 43.6641C1.26616 44.3819 1.71505 45.0361 2.25358 45.6012C2.78717 46.1736 3.40371 46.6512 4.07967 47.0156C4.75481 47.3808 5.47772 47.636 6.22416 47.7726C6.9717 47.9032 7.72738 47.9741 8.48488 47.9848C8.83358 47.9929 9.17621 47.9976 9.5216 47.9976C9.93419 48 10.343 48 10.7566 48H124.249C124.655 48 125.067 48 125.472 47.9976C125.816 47.9976 126.169 47.9929 126.512 47.9848C127.268 47.9747 128.023 47.9038 128.769 47.7726C129.518 47.635 130.243 47.3799 130.921 47.0156C131.597 46.651 132.213 46.1734 132.746 45.6012C133.283 45.0339 133.733 44.3802 134.079 43.6641C134.42 42.9445 134.655 42.174 134.777 41.3789C134.903 40.5848 134.973 39.7818 134.987 38.9766C134.991 38.6039 134.991 38.243 134.991 37.8704C135 37.4344 135 37.0008 135 36.5578V11.4435C135 11.004 135 10.5681 134.991 10.1333C134.991 9.76536 134.991 9.39622 134.987 9.02825C134.973 8.22304 134.903 7.42001 134.777 6.62586C134.655 5.83128 134.419 5.06114 134.079 4.34189C133.383 2.89838 132.278 1.72338 130.921 0.982137C130.243 0.618835 129.518 0.365243 128.769 0.229739C128.023 0.097479 127.269 0.0265652 126.512 0.0176279C126.169 0.011772 125.816 0.00473998 125.472 0.00239999C125.067 0 124.655 0 124.249 0V0.000155999Z" fill="#A6A6A6"/>
<path d="M9.52714 46.9503C9.18341 46.9503 8.84799 46.9456 8.50695 46.9375C7.80048 46.9277 7.09566 46.8623 6.39827 46.7418C5.74799 46.6226 5.11804 46.401 4.5292 46.0843C3.94577 45.7702 3.41363 45.3583 2.95317 44.8644C2.48604 44.3763 2.09714 43.8102 1.80187 43.1886C1.50335 42.5629 1.29675 41.8922 1.18928 41.1999C1.07322 40.4561 1.01043 39.7039 1.00144 38.95C0.994288 38.6969 0.984924 37.8542 0.984924 37.8542V10.1337C0.984924 10.1337 0.994897 9.30397 1.0015 9.06021C1.0101 8.30743 1.07253 7.55644 1.18824 6.81373C1.29591 6.11956 1.50267 5.44696 1.80135 4.81922C2.09553 4.198 2.48228 3.6315 2.94659 3.14169C3.41038 2.64722 3.94422 2.2332 4.52865 1.91473C5.11613 1.59899 5.74489 1.37895 6.39386 1.262C7.09354 1.14028 7.80081 1.07447 8.50973 1.06513L9.52769 1.05048H125.467L126.497 1.06572C127.199 1.0746 127.9 1.13982 128.594 1.26082C129.249 1.37925 129.884 1.60081 130.479 1.91824C131.649 2.56005 132.602 3.57546 133.203 4.82215C133.497 5.44556 133.701 6.11267 133.807 6.80085C133.924 7.54964 133.99 8.30654 134.003 9.06549C134.006 9.40533 134.006 9.77037 134.006 10.1337C134.015 10.5837 134.015 11.012 134.015 11.4438V36.5581C134.015 36.9941 134.015 37.4195 134.006 37.8484C134.006 38.2386 134.006 38.5961 134.002 38.964C133.989 39.7094 133.924 40.4528 133.809 41.1882C133.704 41.8855 133.498 42.5614 133.2 43.1922C132.902 43.8071 132.516 44.3683 132.054 44.855C131.593 45.3516 131.06 45.7659 130.475 46.082C129.883 46.4012 129.248 46.6236 128.594 46.7418C127.896 46.8629 127.191 46.9283 126.485 46.9375C126.154 46.9456 125.808 46.9503 125.472 46.9503L124.25 46.9527L9.52714 46.9503Z" fill="black"/>
<path d="M28.4426 23.6973C28.4547 22.7055 28.7023 21.7331 29.1626 20.8704C29.6229 20.0078 30.2809 19.283 31.0753 18.7635C30.5706 17.9968 29.9049 17.3659 29.1309 16.9209C28.3569 16.4758 27.496 16.2288 26.6165 16.1995C24.7406 15.9901 22.9219 17.3936 21.9659 17.3936C20.9915 17.3936 19.5196 16.2203 17.9347 16.255C16.9095 16.2902 15.9104 16.6073 15.0347 17.1754C14.1589 17.7435 13.4365 18.5432 12.9377 19.4965C10.7772 23.4754 12.3887 29.3231 14.4584 32.5393C15.4939 34.1142 16.7041 35.8734 18.2876 35.811C19.8372 35.7427 20.4159 34.76 22.2863 34.76C24.1394 34.76 24.6824 35.811 26.298 35.7714C27.9608 35.7427 29.0084 34.1895 30.0076 32.5997C30.7516 31.4775 31.3241 30.2372 31.7039 28.9248C30.7379 28.4903 29.9135 27.7628 29.3336 26.8332C28.7536 25.9036 28.4438 24.813 28.4426 23.6973Z" fill="white"/>
<path d="M25.3922 14.0844C26.2988 12.9268 26.7455 11.4388 26.6373 9.93652C25.2522 10.0913 23.9728 10.7954 23.054 11.9086C22.6047 12.4525 22.2606 13.0852 22.0414 13.7705C21.8221 14.4559 21.7321 15.1805 21.7763 15.9029C22.469 15.9105 23.1544 15.7508 23.7808 15.4358C24.4071 15.1208 24.9581 14.6587 25.3922 14.0844Z" fill="white"/>
<path d="M48.0323 31.8248H42.7444L41.4745 35.8132H39.2347L44.2434 21.057H46.5704L51.5791 35.8132H49.3011L48.0323 31.8248ZM43.2921 29.9843H47.4836L45.4173 23.5114H45.3595L43.2921 29.9843Z" fill="white"/>
<path d="M62.395 30.4342C62.395 33.7774 60.7127 35.9254 58.174 35.9254C57.5309 35.9612 56.8914 35.8036 56.3286 35.4707C55.7657 35.1378 55.3024 34.6431 54.9917 34.0431H54.9436V39.3719H52.8675V25.0544H54.8771V26.8438H54.9153C55.2404 26.2467 55.7115 25.7545 56.2786 25.4196C56.8457 25.0847 57.4875 24.9196 58.1359 24.9418C60.7029 24.9418 62.395 27.1002 62.395 30.4342ZM60.2611 30.4342C60.2611 28.256 59.2028 26.824 57.5882 26.824C56.0019 26.824 54.9349 28.2862 54.9349 30.4342C54.9349 32.6019 56.0019 34.0536 57.5882 34.0536C59.2028 34.0536 60.2611 32.6321 60.2611 30.4342Z" fill="white"/>
<path d="M73.5283 30.4342C73.5283 33.7774 71.846 35.9254 69.3073 35.9254C68.6642 35.9612 68.0247 35.8036 67.4619 35.4707C66.899 35.1378 66.4357 34.6431 66.125 34.0431H66.0769V39.3719H64.0008V25.0544H66.0104V26.8438H66.0486C66.3736 26.2467 66.8447 25.7545 67.4119 25.4196C67.979 25.0847 68.6208 24.9196 69.2691 24.9418C71.8362 24.9418 73.5283 27.1002 73.5283 30.4342ZM71.3944 30.4342C71.3944 28.256 70.3361 26.824 68.7215 26.824C67.1352 26.824 66.0682 28.2862 66.0682 30.4342C66.0682 32.6019 67.1352 34.0536 68.7215 34.0536C70.3361 34.0536 71.3944 32.6321 71.3944 30.4342H71.3944Z" fill="white"/>
<path d="M80.886 31.7014C81.0398 33.1647 82.3763 34.1255 84.2025 34.1255C85.9525 34.1255 87.2115 33.1646 87.2115 31.8452C87.2115 30.6998 86.4521 30.014 84.6542 29.544L82.8563 29.0833C80.3089 28.4289 79.1263 27.1616 79.1263 25.1053C79.1263 22.5593 81.2122 20.8105 84.1742 20.8105C87.1056 20.8105 89.1152 22.5593 89.1828 25.1053H87.0871C86.9616 23.6327 85.8172 22.7438 84.1447 22.7438C82.4722 22.7438 81.3278 23.6432 81.3278 24.9522C81.3278 25.9954 82.0588 26.6093 83.8469 27.0792L85.3753 27.4784C88.2217 28.1944 89.4043 29.4106 89.4043 31.569C89.4043 34.3297 87.3369 36.0587 84.0487 36.0587C80.9721 36.0587 78.8949 34.3703 78.7607 31.7012L80.886 31.7014Z" fill="white"/>
<path d="M93.8841 22.5081V25.0541H95.8075V26.8029H93.8841V32.7339C93.8841 33.6553 94.2692 34.0846 95.1147 34.0846C95.343 34.0804 95.571 34.0633 95.7977 34.0335V35.7719C95.4175 35.8474 95.0311 35.8816 94.6445 35.874C92.5967 35.874 91.7981 35.0559 91.7981 32.9694V26.8029H90.3275V25.0541H91.7981V22.5081H93.8841Z" fill="white"/>
<path d="M96.9216 30.4341C96.9216 27.0491 98.7958 24.922 101.719 24.922C104.651 24.922 106.517 27.049 106.517 30.4341C106.517 33.8284 104.661 35.9462 101.719 35.9462C98.7773 35.9462 96.9216 33.8284 96.9216 30.4341ZM104.401 30.4341C104.401 28.1121 103.401 26.7416 101.719 26.7416C100.036 26.7416 99.037 28.1225 99.037 30.4341C99.037 32.7654 100.036 34.1255 101.719 34.1255C103.401 34.1255 104.401 32.7654 104.401 30.4341H104.401Z" fill="white"/>
<path d="M108.23 25.0545H110.21V26.8857H110.258C110.392 26.3138 110.707 25.8083 111.15 25.4544C111.593 25.1004 112.137 24.9194 112.691 24.9419C112.93 24.941 113.168 24.9687 113.402 25.0243V27.0899C113.1 26.9917 112.785 26.9467 112.469 26.9565C112.168 26.9435 111.867 27 111.588 27.1223C111.309 27.2445 111.058 27.4296 110.852 27.6647C110.647 27.8999 110.491 28.1796 110.397 28.4846C110.303 28.7896 110.272 29.1127 110.306 29.4317V35.813H108.23L108.23 25.0545Z" fill="white"/>
<path d="M122.973 32.6529C122.693 34.6059 120.905 35.9462 118.618 35.9462C115.675 35.9462 113.849 33.8493 113.849 30.4852C113.849 27.1106 115.685 24.922 118.53 24.922C121.329 24.922 123.088 26.9667 123.088 30.2287V30.9853H115.945V31.1188C115.912 31.5147 115.958 31.9136 116.081 32.2889C116.205 32.6642 116.401 33.0073 116.659 33.2956C116.916 33.5838 117.228 33.8105 117.574 33.9605C117.92 34.1106 118.292 34.1807 118.666 34.1661C119.156 34.215 119.649 34.0941 120.069 33.8215C120.49 33.5488 120.817 33.139 121.001 32.6529L122.973 32.6529ZM115.955 29.4419H121.011C121.03 29.0859 120.979 28.7296 120.862 28.3955C120.745 28.0613 120.565 27.7565 120.332 27.5001C120.099 27.2437 119.818 27.0413 119.508 26.9056C119.198 26.7698 118.865 26.7037 118.53 26.7114C118.192 26.7093 117.857 26.7783 117.544 26.9147C117.231 27.051 116.947 27.2519 116.708 27.5058C116.468 27.7597 116.278 28.0615 116.149 28.3938C116.02 28.7261 115.954 29.0823 115.955 29.4419V29.4419Z" fill="white"/>
<path d="M43.0281 9.94927C43.4633 9.91605 43.9001 9.98599 44.3069 10.1541C44.7136 10.3221 45.0803 10.5841 45.3803 10.9211C45.6804 11.2582 45.9064 11.6618 46.042 12.103C46.1776 12.5442 46.2195 13.0119 46.1646 13.4724C46.1646 15.7376 45.0136 17.0396 43.0281 17.0396H40.6203V9.94927H43.0281ZM41.6556 16.0369H42.9124C43.2234 16.0567 43.5347 16.0024 43.8235 15.8781C44.1124 15.7538 44.3715 15.5625 44.5821 15.3183C44.7926 15.074 44.9494 14.7829 45.0408 14.466C45.1323 14.1492 45.1561 13.8147 45.1107 13.4868C45.1529 13.1602 45.1265 12.8278 45.0337 12.5133C44.9408 12.1988 44.7837 11.91 44.5736 11.6677C44.3635 11.4254 44.1056 11.2355 43.8185 11.1116C43.5313 10.9877 43.2219 10.933 42.9124 10.9512H41.6556V16.0369Z" fill="white"/>
<path d="M47.3341 14.3618C47.3025 14.0102 47.3403 13.6554 47.4451 13.3202C47.55 12.985 47.7195 12.6769 47.9429 12.4154C48.1662 12.154 48.4385 11.9452 48.7422 11.8023C49.0459 11.6593 49.3743 11.5855 49.7064 11.5855C50.0385 11.5855 50.3669 11.6593 50.6706 11.8023C50.9743 11.9452 51.2466 12.154 51.47 12.4154C51.6933 12.6769 51.8629 12.985 51.9677 13.3202C52.0726 13.6554 52.1104 14.0102 52.0787 14.3618C52.111 14.7138 52.0736 15.0691 51.969 15.4048C51.8645 15.7405 51.695 16.0493 51.4716 16.3112C51.2482 16.5731 50.9757 16.7824 50.6717 16.9256C50.3677 17.0689 50.0389 17.1429 49.7064 17.1429C49.3739 17.1429 49.0451 17.0689 48.7411 16.9256C48.4371 16.7824 48.1646 16.5731 47.9412 16.3112C47.7178 16.0493 47.5484 15.7405 47.4438 15.4048C47.3392 15.0691 47.3019 14.7138 47.3341 14.3618ZM51.0576 14.3618C51.0576 13.202 50.5677 12.5237 49.7081 12.5237C48.8451 12.5237 48.3596 13.202 48.3596 14.3618C48.3596 15.531 48.8451 16.204 49.7081 16.204C50.5678 16.204 51.0576 15.5263 51.0576 14.3618H51.0576Z" fill="white"/>
<path d="M58.3863 17.0397H57.3564L56.3167 13.0988H56.2382L55.2028 17.0397H54.1828L52.7961 11.6889H53.8031L54.7043 15.7719H54.7784L55.8127 11.6889H56.7651L57.7993 15.7719H57.8779L58.7747 11.6889H59.7674L58.3863 17.0397Z" fill="white"/>
<path d="M60.9318 11.6889H61.8875V12.5389H61.9616C62.0875 12.2336 62.2998 11.9777 62.5689 11.8068C62.8379 11.6359 63.1505 11.5586 63.4628 11.5856C63.7076 11.566 63.9534 11.6053 64.1819 11.7004C64.4105 11.7956 64.616 11.9443 64.7832 12.1354C64.9504 12.3265 65.0751 12.5552 65.1479 12.8046C65.2208 13.0539 65.2399 13.3175 65.204 13.5757V17.0396H64.2112V13.8409C64.2112 12.981 63.8599 12.5534 63.1257 12.5534C62.9595 12.5452 62.7936 12.5753 62.6394 12.6416C62.4852 12.7079 62.3462 12.809 62.2322 12.9378C62.1181 13.0666 62.0315 13.2201 61.9784 13.3878C61.9253 13.5555 61.9069 13.7334 61.9245 13.9094V17.0397H60.9318L60.9318 11.6889Z" fill="white"/>
<path d="M66.7874 9.60004H67.7802V17.0396H66.7874V9.60004Z" fill="white"/>
<path d="M69.16 14.3619C69.1284 14.0102 69.1662 13.6554 69.2711 13.3202C69.376 12.9851 69.5455 12.6769 69.7689 12.4155C69.9923 12.1541 70.2646 11.9452 70.5683 11.8023C70.872 11.6593 71.2005 11.5855 71.5326 11.5855C71.8647 11.5855 72.1932 11.6593 72.4969 11.8023C72.8006 11.9452 73.0729 12.1541 73.2963 12.4155C73.5197 12.6769 73.6892 12.9851 73.7941 13.3202C73.899 13.6554 73.9368 14.0102 73.9052 14.3619C73.9374 14.7139 73.9 15.0692 73.7954 15.4049C73.6908 15.7406 73.5213 16.0494 73.2979 16.3113C73.0744 16.5732 72.802 16.7825 72.4979 16.9257C72.1939 17.0689 71.8651 17.1429 71.5326 17.1429C71.2001 17.1429 70.8713 17.0689 70.5673 16.9257C70.2632 16.7825 69.9908 16.5732 69.7673 16.3113C69.5439 16.0494 69.3744 15.7406 69.2698 15.4049C69.1652 15.0692 69.1278 14.7139 69.16 14.3619ZM72.8835 14.3619C72.8835 13.2021 72.3936 12.5238 71.534 12.5238C70.671 12.5238 70.1856 13.2021 70.1856 14.3619C70.1856 15.5311 70.671 16.2041 71.534 16.2041C72.3936 16.2041 72.8835 15.5264 72.8835 14.3619H72.8835Z" fill="white"/>
<path d="M74.9501 15.5264C74.9501 14.5632 75.6243 14.0079 76.8211 13.929L78.1837 13.8455V13.3836C78.1837 12.8185 77.8324 12.4994 77.1538 12.4994C76.5996 12.4994 76.2156 12.7158 76.1054 13.0941H75.1443C75.2457 12.175 76.0585 11.5855 77.1997 11.5855C78.4608 11.5855 79.1721 12.2533 79.1721 13.3836V17.0396H78.2164V16.2876H78.1379C77.9785 16.5574 77.7546 16.7772 77.4891 16.9248C77.2237 17.0724 76.9261 17.1425 76.6269 17.1277C76.4157 17.1511 76.2023 17.1271 76.0003 17.0574C75.7984 16.9876 75.6124 16.8737 75.4545 16.7228C75.2965 16.5719 75.17 16.3875 75.0831 16.1814C74.9962 15.9753 74.9509 15.7522 74.9501 15.5264ZM78.1837 15.0691V14.6218L76.9553 14.7053C76.2625 14.7547 75.9483 15.0053 75.9483 15.477C75.9483 15.9586 76.3411 16.2389 76.8811 16.2389C77.0394 16.2559 77.1992 16.2389 77.3511 16.1889C77.5031 16.1389 77.644 16.0569 77.7655 15.9477C77.8871 15.8386 77.9867 15.7046 78.0586 15.5536C78.1304 15.4027 78.173 15.2379 78.1837 15.0691Z" fill="white"/>
<path d="M80.476 14.3619C80.476 12.6712 81.2932 11.6001 82.5641 11.6001C82.8785 11.5847 83.1905 11.6648 83.4637 11.831C83.7369 11.9972 83.9599 12.2427 84.1068 12.5388H84.181V9.60004H85.1738V17.0396H84.2224V16.1942H84.1439C83.9857 16.4883 83.7549 16.7308 83.4764 16.8953C83.198 17.0599 82.8825 17.1403 82.5641 17.1278C81.2844 17.1279 80.476 16.0568 80.476 14.3619ZM81.5016 14.3619C81.5016 15.4968 82.0045 16.1798 82.8457 16.1798C83.6824 16.1798 84.1995 15.487 84.1995 14.3666C84.1995 13.2514 83.677 12.5487 82.8457 12.5487C82.0099 12.5487 81.5015 13.2363 81.5015 14.3619H81.5016Z" fill="white"/>
<path d="M89.2814 14.3618C89.2498 14.0102 89.2876 13.6554 89.3924 13.3202C89.4973 12.985 89.6668 12.6769 89.8902 12.4154C90.1136 12.154 90.3858 11.9452 90.6895 11.8023C90.9932 11.6593 91.3217 11.5855 91.6537 11.5855C91.9858 11.5855 92.3143 11.6593 92.618 11.8023C92.9217 11.9452 93.1939 12.154 93.4173 12.4154C93.6407 12.6769 93.8102 12.985 93.915 13.3202C94.0199 13.6554 94.0577 14.0102 94.0261 14.3618C94.0583 14.7138 94.0209 15.0691 93.9164 15.4048C93.8118 15.7405 93.6424 16.0493 93.419 16.3112C93.1955 16.5731 92.9231 16.7824 92.6191 16.9256C92.3151 17.0689 91.9862 17.1429 91.6537 17.1429C91.3213 17.1429 90.9924 17.0689 90.6884 16.9256C90.3844 16.7824 90.112 16.5731 89.8885 16.3112C89.6651 16.0493 89.4957 15.7405 89.3911 15.4048C89.2866 15.0691 89.2492 14.7138 89.2814 14.3618ZM93.0049 14.3618C93.0049 13.202 92.5151 12.5237 91.6554 12.5237C90.7924 12.5237 90.307 13.202 90.307 14.3618C90.307 15.531 90.7925 16.204 91.6554 16.204C92.5151 16.204 93.0049 15.5263 93.0049 14.3618Z" fill="white"/>
<path d="M95.3582 11.6889H96.3138V12.5389H96.388C96.5139 12.2336 96.7261 11.9777 96.9952 11.8068C97.2643 11.6359 97.5768 11.5586 97.8892 11.5856C98.134 11.566 98.3797 11.6053 98.6083 11.7004C98.8369 11.7956 99.0424 11.9443 99.2096 12.1354C99.3768 12.3265 99.5015 12.5552 99.5743 12.8046C99.6471 13.0539 99.6663 13.3175 99.6304 13.5757V17.0396H98.6376V13.8409C98.6376 12.981 98.2863 12.5534 97.5521 12.5534C97.3859 12.5452 97.22 12.5753 97.0658 12.6416C96.9115 12.7079 96.7726 12.809 96.6585 12.9378C96.5445 13.0666 96.4579 13.2201 96.4048 13.3878C96.3517 13.5555 96.3333 13.7334 96.3509 13.9094V17.0397H95.3582V11.6889Z" fill="white"/>
<path d="M105.24 10.3568V11.7134H106.33V12.6028H105.24V15.3543C105.24 15.9148 105.457 16.1602 105.951 16.1602C106.078 16.1597 106.204 16.1516 106.33 16.1358V17.0154C106.152 17.0493 105.971 17.0674 105.79 17.0694C104.686 17.0694 104.246 16.6563 104.246 15.6246V12.6028H103.447V11.7133H104.246V10.3568H105.24Z" fill="white"/>
<path d="M107.687 9.60004H108.671V12.5487H108.75C108.882 12.2406 109.1 11.9832 109.374 11.8117C109.649 11.6401 109.966 11.5628 110.284 11.5902C110.527 11.5761 110.771 11.6193 110.997 11.7168C111.223 11.8143 111.426 11.9637 111.591 12.1542C111.757 12.3447 111.88 12.5717 111.954 12.8191C112.027 13.0664 112.049 13.3279 112.016 13.585V17.0396H111.022V13.8455C111.022 12.9908 110.648 12.558 109.947 12.558C109.776 12.5431 109.604 12.5681 109.444 12.6311C109.283 12.6941 109.137 12.7938 109.017 12.923C108.896 13.0522 108.804 13.2079 108.745 13.3792C108.687 13.5504 108.665 13.7332 108.68 13.9146V17.0396H107.687L107.687 9.60004Z" fill="white"/>
<path d="M117.806 15.5949C117.671 16.084 117.379 16.507 116.98 16.79C116.582 17.0729 116.103 17.1979 115.626 17.1429C115.295 17.1523 114.966 17.0847 114.661 16.9451C114.357 16.8054 114.084 16.597 113.863 16.3342C113.642 16.0714 113.478 15.7606 113.381 15.4233C113.284 15.0861 113.257 14.7304 113.303 14.3811C113.258 14.0307 113.286 13.6743 113.382 13.336C113.479 12.9977 113.643 12.6855 113.863 12.4204C114.082 12.1553 114.353 11.9436 114.657 11.7996C114.96 11.6556 115.29 11.5826 115.622 11.5856C117.022 11.5856 117.866 12.6028 117.866 14.283V14.6515H114.314V14.7107C114.298 14.907 114.322 15.1047 114.382 15.291C114.442 15.4772 114.539 15.648 114.665 15.7923C114.791 15.9366 114.944 16.0513 115.114 16.129C115.285 16.2068 115.468 16.2458 115.654 16.2436C115.891 16.2739 116.132 16.2284 116.345 16.1129C116.558 15.9974 116.734 15.8171 116.85 15.5949L117.806 15.5949ZM114.314 13.8705H116.855C116.867 13.6909 116.844 13.5105 116.787 13.341C116.73 13.1714 116.641 13.0163 116.524 12.8858C116.408 12.7552 116.267 12.6521 116.11 12.5829C115.954 12.5138 115.786 12.4802 115.616 12.4844C115.445 12.4821 115.274 12.5164 115.115 12.5852C114.956 12.6541 114.812 12.7561 114.69 12.8853C114.569 13.0145 114.473 13.1682 114.408 13.3374C114.344 13.5066 114.312 13.6879 114.314 13.8705H114.314Z" fill="white"/>
</svg>
