<svg width="144" height="48" viewBox="0 0 144 48" fill="none" xmlns="http://www.w3.org/2000/svg">
<path d="M138.667 48H5.33333C2.34667 48 0 45.36 0 42V6C0 2.64 2.34667 0 5.33333 0H138.667C141.653 0 144 2.64 144 6V42C144 45.24 141.653 48 138.667 48Z" fill="black"/>
<path d="M138.667 0.96C141.12 0.96 143.147 3.24 143.147 6V42C143.147 44.76 141.12 47.04 138.667 47.04H5.33333C2.88 47.04 0.853334 44.76 0.853334 42V6C0.853334 3.24 2.88 0.96 5.33333 0.96H138.667ZM138.667 0H5.33333C2.34667 0 0 2.64 0 6V42C0 45.36 2.34667 48 5.33333 48H138.667C141.653 48 144 45.36 144 42V6C144 2.76 141.653 0 138.667 0Z" fill="#A6A6A6"/>
<path d="M51.1092 13.0048C51.1092 13.8302 50.9044 14.5523 50.3923 15.0682C49.7779 15.6872 49.061 15.9967 48.1393 15.9967C47.2176 15.9967 46.5008 15.6872 45.8863 15.0682C45.2719 14.4492 44.9646 13.727 44.9646 12.7985C44.9646 11.87 45.2719 11.1478 45.8863 10.5288C46.5008 9.90978 47.2176 9.60028 48.1393 9.60028C48.549 9.60028 48.9586 9.70345 49.3682 9.90979C49.7779 10.1161 50.0851 10.3225 50.2899 10.632L49.7779 11.1478C49.3682 10.632 48.8562 10.4256 48.1393 10.4256C47.5249 10.4256 46.9104 10.632 46.5008 11.1478C45.9887 11.5605 45.7839 12.1795 45.7839 12.9017C45.7839 13.6238 45.9887 14.2428 46.5008 14.6555C47.0128 15.0682 47.5249 15.3777 48.1393 15.3777C48.8562 15.3777 49.3682 15.1713 49.8803 14.6555C50.1875 14.346 50.3923 13.9333 50.3923 13.4175H48.1393V12.6953H51.1092C51.1092 12.6953 51.1092 12.9017 51.1092 13.0048Z" fill="white" stroke="white" stroke-width="0.281869" stroke-miterlimit="10"/>
<path d="M55.8191 10.4254H53.0541V12.3856H55.6143V13.1077H53.0541V15.0679H55.8191V15.8933H52.2348V9.70319H55.8191V10.4254Z" fill="white" stroke="white" stroke-width="0.281869" stroke-miterlimit="10"/>
<path d="M59.1992 15.8933H58.3799V10.4254H56.6389V9.70319H60.9401V10.4254H59.1992V15.8933Z" fill="white" stroke="white" stroke-width="0.281869" stroke-miterlimit="10"/>
<path d="M63.9093 15.8933V9.70319H64.7286V15.8933H63.9093Z" fill="white" stroke="white" stroke-width="0.281869" stroke-miterlimit="10"/>
<path d="M68.211 15.8933H67.3917V10.4254H65.6507V9.70319H69.8495V10.4254H68.1086V15.8933H68.211Z" fill="white" stroke="white" stroke-width="0.281869" stroke-miterlimit="10"/>
<path d="M77.9409 15.0678C77.3265 15.6868 76.6096 15.9963 75.6879 15.9963C74.7662 15.9963 74.0494 15.6868 73.4349 15.0678C72.8205 14.4487 72.5132 13.7266 72.5132 12.7981C72.5132 11.8695 72.8205 11.1474 73.4349 10.5284C74.0494 9.90936 74.7662 9.59985 75.6879 9.59985C76.6096 9.59985 77.3265 9.90936 77.9409 10.5284C78.5554 11.1474 78.8626 11.8695 78.8626 12.7981C78.8626 13.7266 78.5554 14.4487 77.9409 15.0678ZM74.0494 14.5519C74.459 14.9646 75.0735 15.2741 75.6879 15.2741C76.3024 15.2741 76.9168 15.0678 77.3265 14.5519C77.7361 14.1392 78.0433 13.5202 78.0433 12.7981C78.0433 12.0759 77.8385 11.4569 77.3265 11.0442C76.9168 10.6315 76.3024 10.322 75.6879 10.322C75.0735 10.322 74.459 10.5284 74.0494 11.0442C73.6397 11.4569 73.3325 12.0759 73.3325 12.7981C73.3325 13.5202 73.5373 14.1392 74.0494 14.5519Z" fill="white" stroke="white" stroke-width="0.281869" stroke-miterlimit="10"/>
<path d="M79.9872 15.8933V9.70319H80.9089L83.8787 14.5521V13.3141V9.70319H84.698V15.8933H83.8787L80.7041 10.838V12.076V15.8933H79.9872Z" fill="white" stroke="white" stroke-width="0.281869" stroke-miterlimit="10"/>
<path d="M72.306 24.9724C69.8482 24.9724 67.9024 26.8294 67.9024 29.4086C67.9024 31.8846 69.8482 33.8448 72.306 33.8448C74.7638 33.8448 76.7096 31.9878 76.7096 29.4086C76.7096 26.7262 74.7638 24.9724 72.306 24.9724ZM72.306 31.9878C70.9747 31.9878 69.8482 30.8529 69.8482 29.3054C69.8482 27.7579 70.9747 26.6231 72.306 26.6231C73.6373 26.6231 74.7638 27.6547 74.7638 29.3054C74.7638 30.8529 73.6373 31.9878 72.306 31.9878ZM62.7819 24.9724C60.3241 24.9724 58.3783 26.8294 58.3783 29.4086C58.3783 31.8846 60.3241 33.8448 62.7819 33.8448C65.2398 33.8448 67.1855 31.9878 67.1855 29.4086C67.1855 26.7262 65.2398 24.9724 62.7819 24.9724ZM62.7819 31.9878C61.4506 31.9878 60.3241 30.8529 60.3241 29.3054C60.3241 27.7579 61.4506 26.6231 62.7819 26.6231C64.1133 26.6231 65.2397 27.6547 65.2397 29.3054C65.2397 30.8529 64.1133 31.9878 62.7819 31.9878ZM51.4145 26.3136V28.1706H55.8181C55.7157 29.2023 55.306 30.0276 54.794 30.5434C54.1795 31.1625 53.1554 31.8846 51.4145 31.8846C48.6494 31.8846 46.6012 29.7181 46.6012 26.9326C46.6012 24.147 48.7518 21.9805 51.4145 21.9805C52.8482 21.9805 53.9747 22.5995 54.794 23.3217L56.1253 21.9805C54.9988 20.9488 53.5651 20.1235 51.5169 20.1235C47.8301 20.1235 44.6555 23.2185 44.6555 26.9326C44.6555 30.6466 47.8301 33.7417 51.5169 33.7417C53.5651 33.7417 54.9988 33.1226 56.2277 31.7815C57.4566 30.5434 57.8663 28.7896 57.8663 27.4484C57.8663 27.0357 57.8663 26.6231 57.7639 26.3136H51.4145ZM97.9084 27.7579C97.4987 26.7262 96.4746 24.9724 94.2216 24.9724C91.9686 24.9724 90.1252 26.7262 90.1252 29.4086C90.1252 31.8846 91.9686 33.8448 94.4264 33.8448C96.3722 33.8448 97.6011 32.6068 98.0108 31.8846L96.577 30.8529C96.065 31.5751 95.4505 32.091 94.4264 32.091C93.4023 32.091 92.7879 31.6783 92.2758 30.7498L98.1132 28.2737L97.9084 27.7579ZM91.9686 29.2023C91.9686 27.5516 93.2999 26.6231 94.2216 26.6231C94.9385 26.6231 95.6553 27.0357 95.8602 27.5516L91.9686 29.2023ZM87.1554 33.4321H89.1011V20.5361H87.1554V33.4321ZM84.0831 25.9009C83.571 25.385 82.7518 24.8692 81.7277 24.8692C79.5771 24.8692 77.5289 26.8294 77.5289 29.3054C77.5289 31.7815 79.4747 33.6385 81.7277 33.6385C82.7518 33.6385 83.571 33.1226 83.9807 32.6068H84.0831V33.2258C84.0831 34.8765 83.1614 35.805 81.7277 35.805C80.6012 35.805 79.7819 34.9797 79.5771 34.2575L77.9385 34.9797C78.4506 36.1145 79.6795 37.5589 81.8301 37.5589C84.0831 37.5589 85.9265 36.2177 85.9265 33.0195V25.1787H84.0831V25.9009ZM81.8301 31.9878C80.4988 31.9878 79.3723 30.8529 79.3723 29.3054C79.3723 27.7579 80.4988 26.6231 81.8301 26.6231C83.1614 26.6231 84.1855 27.7579 84.1855 29.3054C84.1855 30.8529 83.1614 31.9878 81.8301 31.9878ZM106.818 20.5361H102.21V33.4321H104.155V28.5833H106.818C108.969 28.5833 111.017 27.0357 111.017 24.5597C111.017 22.0837 108.969 20.5361 106.818 20.5361ZM106.92 26.7262H104.155V22.29H106.92C108.354 22.29 109.173 23.528 109.173 24.4565C109.071 25.5914 108.252 26.7262 106.92 26.7262ZM118.697 24.8692C117.264 24.8692 115.83 25.4882 115.318 26.8294L117.059 27.5516C117.469 26.8294 118.083 26.6231 118.8 26.6231C119.824 26.6231 120.746 27.2421 120.848 28.2737V28.3769C120.541 28.1706 119.722 27.8611 118.902 27.8611C117.059 27.8611 115.216 28.8928 115.216 30.7498C115.216 32.5036 116.752 33.6385 118.39 33.6385C119.722 33.6385 120.336 33.0195 120.848 32.4005H120.95V33.4321H122.794V28.4801C122.589 26.2104 120.848 24.8692 118.697 24.8692ZM118.493 31.9878C117.878 31.9878 116.957 31.6783 116.957 30.8529C116.957 29.8213 118.083 29.5118 119.005 29.5118C119.824 29.5118 120.234 29.7181 120.746 29.9244C120.541 31.1624 119.517 31.9878 118.493 31.9878ZM129.246 25.1787L127.095 30.7498H126.993L124.74 25.1787H122.691L126.071 33.0195L124.125 37.3525H126.071L131.294 25.1787H129.246ZM112.041 33.4321H113.987V20.5361H112.041V33.4321Z" fill="white"/>
<path d="M13.2179 10.2189C12.9107 10.5284 12.7059 11.0442 12.7059 11.6632V34.4633C12.7059 35.0824 12.9107 35.5982 13.2179 35.9077L13.3203 36.0109L26.0191 23.218V23.1149V23.0117L13.2179 10.2189Z" fill="url(#paint0_linear)"/>
<path d="M30.2176 27.5509L26.0188 23.321V23.1147V23.0115L30.2176 18.7816L30.32 18.8848L35.338 21.7735C36.7718 22.5988 36.7718 23.94 35.338 24.7654L30.2176 27.5509Z" fill="url(#paint1_linear)"/>
<path d="M30.32 27.4479L26.0188 23.1148L13.2177 36.0108C13.7297 36.5266 14.4466 36.5266 15.3682 36.114L30.32 27.4479Z" fill="url(#paint2_linear)"/>
<path d="M30.32 18.7819L15.3682 10.219C14.4466 9.70312 13.7297 9.80629 13.2177 10.3221L26.0188 23.115L30.32 18.7819Z" fill="url(#paint3_linear)"/>
<path opacity="0.2" d="M30.2183 27.3449L15.3689 35.8047C14.5496 36.3205 13.8328 36.2174 13.3207 35.8047L13.2183 35.9079L13.3207 36.011C13.8328 36.4237 14.5496 36.5269 15.3689 36.011L30.2183 27.3449Z" fill="black"/>
<path opacity="0.12" d="M13.2182 35.8045C12.911 35.495 12.8086 34.9791 12.8086 34.3601V34.4633C12.8086 35.0823 13.0134 35.5981 13.3206 35.9076V35.8045H13.2182Z" fill="black"/>
<path opacity="0.12" d="M35.3373 24.456L30.2169 27.3447L30.3193 27.4479L35.3373 24.5592C36.0542 24.1465 36.3614 23.6306 36.3614 23.1148C36.3614 23.6306 35.9518 24.0433 35.3373 24.456Z" fill="black"/>
<path opacity="0.25" d="M15.3699 10.3221L35.3398 21.7737C35.9542 22.1864 36.3639 22.5991 36.3639 23.1149C36.3639 22.5991 36.0566 22.0832 35.3398 21.6706L15.3699 10.2189C13.9362 9.39356 12.8097 10.1157 12.8097 11.7664V11.8696C12.8097 10.2189 13.9362 9.49673 15.3699 10.3221Z" fill="white"/>
<defs>
<linearGradient id="paint0_linear" x1="24.8923" y1="11.4669" x2="7.5787" y2="28.6532" gradientUnits="userSpaceOnUse">
<stop stop-color="#00A0FF"/>
<stop offset="0.00657445" stop-color="#00A1FF"/>
<stop offset="0.2601" stop-color="#00BEFF"/>
<stop offset="0.5122" stop-color="#00D2FF"/>
<stop offset="0.7604" stop-color="#00DFFF"/>
<stop offset="1" stop-color="#00E3FF"/>
</linearGradient>
<linearGradient id="paint1_linear" x1="37.2166" y1="23.1161" x2="12.4368" y2="23.1161" gradientUnits="userSpaceOnUse">
<stop stop-color="#FFE000"/>
<stop offset="0.4087" stop-color="#FFBD00"/>
<stop offset="0.7754" stop-color="#FFA500"/>
<stop offset="1" stop-color="#FF9C00"/>
</linearGradient>
<linearGradient id="paint2_linear" x1="27.9923" y1="25.4836" x2="4.51361" y2="48.7896" gradientUnits="userSpaceOnUse">
<stop stop-color="#FF3A44"/>
<stop offset="1" stop-color="#C31162"/>
</linearGradient>
<linearGradient id="paint3_linear" x1="10.0402" y1="2.66314" x2="20.5245" y2="13.0702" gradientUnits="userSpaceOnUse">
<stop stop-color="#32A071"/>
<stop offset="0.0685" stop-color="#2DA771"/>
<stop offset="0.4762" stop-color="#15CF74"/>
<stop offset="0.8009" stop-color="#06E775"/>
<stop offset="1" stop-color="#00F076"/>
</linearGradient>
</defs>
</svg>
